# xmcd
#
# Track frame offsets: 
#        150
#        18370
#        36247
#        54450
#
# Disc length: 962 seconds
#
# Revision: 0
# Processed by: cddbd v1.4PL0 Copyright (c) Steve Scherf et al.
# Submitted via: ExactAudioCopy v0.95a2
#
DISCID=2a03c004
DTITLE=Soulhead - Oh My Sister
DYEAR=2003
DGENRE=R&B
TTITLE0=OH MY Sister (Remix)
TTITLE1=I'm Just Going Down
TTITLE2=OH MY Sister (Remix)~instrumental~
TTITLE3=I'm Just Goiing Down~Instrumental~
EXTD=
EXTT0=
EXTT1=
EXTT2=
EXTT3=
PLAYORDER=
